<svg width="24" height="24" viewBox="0 0 24 24" fill="none" xmlns="http://www.w3.org/2000/svg">
<mask id="mask0_35_33" style="mask-type:luminance" maskUnits="userSpaceOnUse" x="0" y="0" width="24" height="24">
<path d="M0 1.90735e-06H24V24H0V1.90735e-06Z" fill="white"/>
</mask>
<g mask="url(#mask0_35_33)">
<path d="M17.6484 1.17188V5.88281C17.6484 6.14166 17.4385 6.35156 17.1797 6.35156H12.4687C12.2099 6.35156 12 6.56147 12 6.82031V11.5313C12 11.7901 11.7901 12 11.5312 12H6.82031C6.56142 12 6.35156 12.2099 6.35156 12.4688V17.1797C6.35156 17.4385 6.1417 17.6484 5.88281 17.6484H1.17187C0.912984 17.6484 0.703125 17.8583 0.703125 18.1172V22.8281C0.703125 23.087 0.912984 23.2969 1.17187 23.2969H22.8281C23.087 23.2969 23.2969 23.087 23.2969 22.8281V1.17188C23.2969 0.913033 23.087 0.703127 22.8281 0.703127H18.1172C17.8583 0.703127 17.6484 0.913033 17.6484 1.17188Z" stroke="white" strokeWidth="2" strokeMiterlimit="10" strokeLinecap="round" strokeLinejoin="round"/>
<path d="M9.77526 0.703131L2.88098 7.59741" stroke="white" strokeWidth="2" strokeMiterlimit="10" strokeLinecap="round" strokeLinejoin="round"/>
<path d="M9.77527 4.34917V0.703136H6.12924" stroke="white" strokeWidth="2" strokeMiterlimit="10" strokeLinecap="round" strokeLinejoin="round"/>
</g>
</svg>
