<svg width="15" height="15" viewBox="0 0 15 15" fill="none" xmlns="http://www.w3.org/2000/svg">
<path d="M4.375 2.5C4.375 2.16848 4.5067 1.85054 4.74112 1.61612C4.97554 1.3817 5.29348 1.25 5.625 1.25H9.375C9.70652 1.25 10.0245 1.3817 10.2589 1.61612C10.4933 1.85054 10.625 2.16848 10.625 2.5V3.75H13.125C13.2908 3.75 13.4497 3.81585 13.5669 3.93306C13.6842 4.05027 13.75 4.20924 13.75 4.375C13.75 4.54076 13.6842 4.69973 13.5669 4.81694C13.4497 4.93415 13.2908 5 13.125 5H12.4569L11.915 12.5887C11.8926 12.9041 11.7514 13.1993 11.5201 13.4147C11.2887 13.6302 10.9843 13.75 10.6681 13.75H4.33125C4.01509 13.75 3.71067 13.6302 3.4793 13.4147C3.24794 13.1993 3.10682 12.9041 3.08437 12.5887L2.54375 5H1.875C1.70924 5 1.55027 4.93415 1.43306 4.81694C1.31585 4.69973 1.25 4.54076 1.25 4.375C1.25 4.20924 1.31585 4.05027 1.43306 3.93306C1.55027 3.81585 1.70924 3.75 1.875 3.75H4.375V2.5ZM5.625 3.75H9.375V2.5H5.625V3.75ZM3.79625 5L4.33188 12.5H10.6687L11.2044 5H3.79625ZM6.25 6.25C6.41576 6.25 6.57473 6.31585 6.69194 6.43306C6.80915 6.55027 6.875 6.70924 6.875 6.875V10.625C6.875 10.7908 6.80915 10.9497 6.69194 11.0669C6.57473 11.1842 6.41576 11.25 6.25 11.25C6.08424 11.25 5.92527 11.1842 5.80806 11.0669C5.69085 10.9497 5.625 10.7908 5.625 10.625V6.875C5.625 6.70924 5.69085 6.55027 5.80806 6.43306C5.92527 6.31585 6.08424 6.25 6.25 6.25ZM8.75 6.25C8.91576 6.25 9.07473 6.31585 9.19194 6.43306C9.30915 6.55027 9.375 6.70924 9.375 6.875V10.625C9.375 10.7908 9.30915 10.9497 9.19194 11.0669C9.07473 11.1842 8.91576 11.25 8.75 11.25C8.58424 11.25 8.42527 11.1842 8.30806 11.0669C8.19085 10.9497 8.125 10.7908 8.125 10.625V6.875C8.125 6.70924 8.19085 6.55027 8.30806 6.43306C8.42527 6.31585 8.58424 6.25 8.75 6.25Z" fill="#BC4A4A"/>
</svg>
