<svg width="15" height="15" viewBox="0 0 15 15" fill="none" xmlns="http://www.w3.org/2000/svg">
<path d="M7.50002 1.875C10.87 1.875 13.6738 4.3 14.2619 7.5C13.6744 10.7 10.87 13.125 7.50002 13.125C4.13002 13.125 1.32627 10.7 0.73877 7.5C1.32627 4.3 4.13002 1.875 7.50002 1.875ZM7.50002 11.875C8.77479 11.8749 10.0118 11.442 11.0084 10.6472C12.0051 9.85238 12.7024 8.74278 12.9863 7.5C12.7017 6.25801 12.0041 5.14935 11.0075 4.35534C10.011 3.56133 8.77451 3.12897 7.50033 3.12897C6.22615 3.12897 4.98968 3.56133 3.99314 4.35534C2.99661 5.14935 2.29899 6.25801 2.01439 7.5C2.2982 8.74267 2.99544 9.8522 3.99198 10.647C4.98853 11.4418 6.22535 11.8747 7.50002 11.875ZM7.50002 10.3125C6.7541 10.3125 6.03873 10.0162 5.51128 9.48874C4.98384 8.96129 4.68752 8.24592 4.68752 7.5C4.68752 6.75408 4.98384 6.03871 5.51128 5.51126C6.03873 4.98382 6.7541 4.6875 7.50002 4.6875C8.24594 4.6875 8.96131 4.98382 9.48876 5.51126C10.0162 6.03871 10.3125 6.75408 10.3125 7.5C10.3125 8.24592 10.0162 8.96129 9.48876 9.48874C8.96131 10.0162 8.24594 10.3125 7.50002 10.3125ZM7.50002 9.0625C7.91442 9.0625 8.31185 8.89788 8.60487 8.60485C8.8979 8.31183 9.06252 7.9144 9.06252 7.5C9.06252 7.0856 8.8979 6.68817 8.60487 6.39515C8.31185 6.10212 7.91442 5.9375 7.50002 5.9375C7.08562 5.9375 6.68819 6.10212 6.39516 6.39515C6.10214 6.68817 5.93752 7.0856 5.93752 7.5C5.93752 7.9144 6.10214 8.31183 6.39516 8.60485C6.68819 8.89788 7.08562 9.0625 7.50002 9.0625Z" fill="black"/>
</svg>
