<svg width="174" height="40" viewBox="0 0 174 40" fill="none" xmlns="http://www.w3.org/2000/svg">
<path fill-rule="evenodd" clip-rule="evenodd" d="M8.33334 3.33334C7.00726 3.33334 5.73549 3.86012 4.79781 4.7978C3.86013 5.73548 3.33334 7.00725 3.33334 8.33334V31.6667C3.33334 32.9928 3.86013 34.2645 4.79781 35.2022C5.73549 36.1399 7.00726 36.6667 8.33334 36.6667H23.3333V28.3333C23.3333 27.0073 23.8601 25.7355 24.7978 24.7978C25.7355 23.8601 27.0073 23.3333 28.3333 23.3333H36.6667V8.33334C36.6667 7.00725 36.1399 5.73548 35.2022 4.7978C34.2645 3.86012 32.9928 3.33334 31.6667 3.33334H8.33334ZM28.8217 35.2017C28.2225 35.8008 27.481 36.2378 26.6667 36.4717V28.3333C26.6667 27.8913 26.8423 27.4674 27.1548 27.1548C27.4674 26.8423 27.8913 26.6667 28.3333 26.6667H36.4717C36.2378 27.481 35.8008 28.2225 35.2017 28.8217L28.8217 35.2017ZM11.6667 10C11.2246 10 10.8007 10.1756 10.4882 10.4882C10.1756 10.8007 10 11.2246 10 11.6667C10 12.1087 10.1756 12.5326 10.4882 12.8452C10.8007 13.1577 11.2246 13.3333 11.6667 13.3333H28.3333C28.7754 13.3333 29.1993 13.1577 29.5119 12.8452C29.8244 12.5326 30 12.1087 30 11.6667C30 11.2246 29.8244 10.8007 29.5119 10.4882C29.1993 10.1756 28.7754 10 28.3333 10H11.6667ZM11.6667 16.6667C11.2246 16.6667 10.8007 16.8423 10.4882 17.1548C10.1756 17.4674 10 17.8913 10 18.3333C10 18.7754 10.1756 19.1993 10.4882 19.5118C10.8007 19.8244 11.2246 20 11.6667 20H28.3333C28.7754 20 29.1993 19.8244 29.5119 19.5118C29.8244 19.1993 30 18.7754 30 18.3333C30 17.8913 29.8244 17.4674 29.5119 17.1548C29.1993 16.8423 28.7754 16.6667 28.3333 16.6667H11.6667ZM11.6667 23.3333C11.2246 23.3333 10.8007 23.5089 10.4882 23.8215C10.1756 24.1341 10 24.558 10 25C10 25.442 10.1756 25.866 10.4882 26.1785C10.8007 26.4911 11.2246 26.6667 11.6667 26.6667H18.3333C18.7754 26.6667 19.1993 26.4911 19.5119 26.1785C19.8244 25.866 20 25.442 20 25C20 24.558 19.8244 24.1341 19.5119 23.8215C19.1993 23.5089 18.7754 23.3333 18.3333 23.3333H11.6667Z" fill="#45CD81"/>
<path d="M58.912 28.264C57.088 28.264 55.528 27.904 54.232 27.184C52.936 26.464 51.936 25.456 51.232 24.16C50.544 22.848 50.2 21.304 50.2 19.528C50.2 18.2 50.392 17.008 50.776 15.952C51.176 14.88 51.752 13.968 52.504 13.216C53.256 12.448 54.168 11.856 55.24 11.44C56.328 11.024 57.552 10.816 58.912 10.816C59.712 10.816 60.52 10.92 61.336 11.128C62.168 11.32 62.888 11.6 63.496 11.968C63.896 12.192 64.168 12.472 64.312 12.808C64.456 13.144 64.496 13.48 64.432 13.816C64.384 14.152 64.248 14.44 64.024 14.68C63.816 14.92 63.552 15.072 63.232 15.136C62.912 15.2 62.552 15.128 62.152 14.92C61.672 14.632 61.168 14.424 60.64 14.296C60.112 14.168 59.576 14.104 59.032 14.104C57.96 14.104 57.056 14.32 56.32 14.752C55.6 15.168 55.056 15.776 54.688 16.576C54.32 17.376 54.136 18.36 54.136 19.528C54.136 20.68 54.32 21.664 54.688 22.48C55.056 23.296 55.6 23.92 56.32 24.352C57.056 24.768 57.96 24.976 59.032 24.976C59.544 24.976 60.064 24.912 60.592 24.784C61.136 24.656 61.656 24.456 62.152 24.184C62.568 23.976 62.936 23.904 63.256 23.968C63.592 24.016 63.864 24.16 64.072 24.4C64.296 24.624 64.432 24.896 64.48 25.216C64.544 25.536 64.512 25.856 64.384 26.176C64.256 26.496 64.016 26.768 63.664 26.992C63.072 27.392 62.344 27.704 61.48 27.928C60.616 28.152 59.76 28.264 58.912 28.264ZM71.0463 28.264C69.6223 28.264 68.5583 27.872 67.8543 27.088C67.1503 26.288 66.7983 25.104 66.7983 23.536V12.712C66.7983 12.104 66.9503 11.648 67.2543 11.344C67.5743 11.024 68.0303 10.864 68.6223 10.864C69.1983 10.864 69.6383 11.024 69.9423 11.344C70.2623 11.648 70.4223 12.104 70.4223 12.712V23.392C70.4223 24.048 70.5583 24.536 70.8303 24.856C71.1183 25.16 71.4943 25.312 71.9583 25.312C72.0863 25.312 72.2063 25.304 72.3183 25.288C72.4303 25.272 72.5503 25.264 72.6783 25.264C72.9343 25.232 73.1103 25.312 73.2063 25.504C73.3183 25.68 73.3743 26.04 73.3743 26.584C73.3743 27.064 73.2783 27.432 73.0863 27.688C72.8943 27.928 72.5983 28.088 72.1983 28.168C72.0383 28.184 71.8543 28.2 71.6463 28.216C71.4383 28.248 71.2383 28.264 71.0463 28.264ZM78.7744 28.264C77.9104 28.264 77.1344 28.096 76.4464 27.76C75.7584 27.424 75.2224 26.968 74.8384 26.392C74.4544 25.816 74.2624 25.168 74.2624 24.448C74.2624 23.584 74.4864 22.904 74.9344 22.408C75.3824 21.896 76.1104 21.536 77.1184 21.328C78.1264 21.104 79.4624 20.992 81.1264 20.992H82.3984V22.864H81.1504C80.3344 22.864 79.6704 22.912 79.1584 23.008C78.6624 23.088 78.3024 23.232 78.0784 23.44C77.8704 23.648 77.7664 23.936 77.7664 24.304C77.7664 24.752 77.9184 25.12 78.2224 25.408C78.5424 25.696 78.9984 25.84 79.5904 25.84C80.0544 25.84 80.4624 25.736 80.8144 25.528C81.1824 25.304 81.4704 25.008 81.6784 24.64C81.8864 24.256 81.9904 23.824 81.9904 23.344V20.584C81.9904 19.88 81.8304 19.384 81.5104 19.096C81.1904 18.792 80.6464 18.64 79.8784 18.64C79.4464 18.64 78.9744 18.696 78.4624 18.808C77.9664 18.904 77.4144 19.072 76.8064 19.312C76.4544 19.472 76.1424 19.512 75.8704 19.432C75.5984 19.336 75.3904 19.176 75.2464 18.952C75.1024 18.712 75.0304 18.456 75.0304 18.184C75.0304 17.896 75.1104 17.624 75.2704 17.368C75.4304 17.096 75.6944 16.896 76.0624 16.768C76.8144 16.464 77.5184 16.256 78.1744 16.144C78.8464 16.032 79.4624 15.976 80.0224 15.976C81.2544 15.976 82.2624 16.16 83.0464 16.528C83.8464 16.88 84.4464 17.432 84.8464 18.184C85.2464 18.92 85.4464 19.872 85.4464 21.04V26.368C85.4464 26.96 85.3024 27.416 85.0144 27.736C84.7264 28.056 84.3104 28.216 83.7664 28.216C83.2224 28.216 82.7984 28.056 82.4944 27.736C82.2064 27.416 82.0624 26.96 82.0624 26.368V25.48L82.2304 25.624C82.1344 26.168 81.9264 26.64 81.6064 27.04C81.3024 27.424 80.9104 27.728 80.4304 27.952C79.9504 28.16 79.3984 28.264 78.7744 28.264ZM92.6618 28.264C91.9578 28.264 91.2298 28.2 90.4778 28.072C89.7418 27.944 89.0698 27.728 88.4618 27.424C88.1418 27.264 87.9098 27.064 87.7658 26.824C87.6378 26.568 87.5818 26.312 87.5978 26.056C87.6138 25.8 87.6938 25.568 87.8378 25.36C87.9978 25.152 88.1978 25.016 88.4378 24.952C88.6938 24.872 88.9738 24.896 89.2778 25.024C89.9338 25.296 90.5338 25.488 91.0778 25.6C91.6218 25.712 92.1578 25.768 92.6858 25.768C93.3738 25.768 93.8698 25.664 94.1738 25.456C94.4938 25.232 94.6538 24.944 94.6538 24.592C94.6538 24.272 94.5498 24.032 94.3418 23.872C94.1338 23.712 93.8298 23.6 93.4298 23.536L90.9098 23.08C89.9178 22.904 89.1498 22.544 88.6058 22C88.0778 21.44 87.8138 20.728 87.8138 19.864C87.8138 19.064 88.0378 18.376 88.4858 17.8C88.9338 17.208 89.5498 16.76 90.3338 16.456C91.1338 16.136 92.0378 15.976 93.0458 15.976C93.7658 15.976 94.4298 16.04 95.0378 16.168C95.6458 16.296 96.2298 16.504 96.7898 16.792C97.0778 16.936 97.2778 17.128 97.3898 17.368C97.5178 17.608 97.5578 17.856 97.5098 18.112C97.4778 18.368 97.3818 18.6 97.2218 18.808C97.0618 19.016 96.8538 19.152 96.5978 19.216C96.3578 19.28 96.0778 19.248 95.7578 19.12C95.2458 18.88 94.7738 18.712 94.3418 18.616C93.9098 18.504 93.4938 18.448 93.0938 18.448C92.3738 18.448 91.8538 18.568 91.5338 18.808C91.2138 19.032 91.0538 19.32 91.0538 19.672C91.0538 19.944 91.1418 20.176 91.3178 20.368C91.5098 20.544 91.7978 20.664 92.1818 20.728L94.7018 21.184C95.7418 21.36 96.5338 21.712 97.0778 22.24C97.6218 22.752 97.8938 23.456 97.8938 24.352C97.8938 25.568 97.4138 26.528 96.4538 27.232C95.5098 27.92 94.2458 28.264 92.6618 28.264ZM104.474 28.264C103.77 28.264 103.042 28.2 102.29 28.072C101.554 27.944 100.882 27.728 100.274 27.424C99.9543 27.264 99.7223 27.064 99.5783 26.824C99.4503 26.568 99.3943 26.312 99.4103 26.056C99.4263 25.8 99.5063 25.568 99.6503 25.36C99.8103 25.152 100.01 25.016 100.25 24.952C100.506 24.872 100.786 24.896 101.09 25.024C101.746 25.296 102.346 25.488 102.89 25.6C103.434 25.712 103.97 25.768 104.498 25.768C105.186 25.768 105.682 25.664 105.986 25.456C106.306 25.232 106.466 24.944 106.466 24.592C106.466 24.272 106.362 24.032 106.154 23.872C105.946 23.712 105.642 23.6 105.242 23.536L102.722 23.08C101.73 22.904 100.962 22.544 100.418 22C99.8903 21.44 99.6263 20.728 99.6263 19.864C99.6263 19.064 99.8503 18.376 100.298 17.8C100.746 17.208 101.362 16.76 102.146 16.456C102.946 16.136 103.85 15.976 104.858 15.976C105.578 15.976 106.242 16.04 106.85 16.168C107.458 16.296 108.042 16.504 108.602 16.792C108.89 16.936 109.09 17.128 109.202 17.368C109.33 17.608 109.37 17.856 109.322 18.112C109.29 18.368 109.194 18.6 109.034 18.808C108.874 19.016 108.666 19.152 108.41 19.216C108.17 19.28 107.89 19.248 107.57 19.12C107.058 18.88 106.586 18.712 106.154 18.616C105.722 18.504 105.306 18.448 104.906 18.448C104.186 18.448 103.666 18.568 103.346 18.808C103.026 19.032 102.866 19.32 102.866 19.672C102.866 19.944 102.954 20.176 103.13 20.368C103.322 20.544 103.61 20.664 103.994 20.728L106.514 21.184C107.554 21.36 108.346 21.712 108.89 22.24C109.434 22.752 109.706 23.456 109.706 24.352C109.706 25.568 109.226 26.528 108.266 27.232C107.322 27.92 106.058 28.264 104.474 28.264ZM113.599 28.216C113.007 28.216 112.551 28.056 112.231 27.736C111.927 27.416 111.775 26.96 111.775 26.368V17.848C111.775 17.256 111.927 16.808 112.231 16.504C112.551 16.184 112.991 16.024 113.551 16.024C114.127 16.024 114.567 16.184 114.871 16.504C115.175 16.808 115.327 17.256 115.327 17.848V19.216L115.063 18.424C115.431 17.64 115.975 17.04 116.695 16.624C117.431 16.192 118.263 15.976 119.191 15.976C120.135 15.976 120.911 16.16 121.519 16.528C122.127 16.88 122.583 17.424 122.887 18.16C123.191 18.88 123.343 19.8 123.343 20.92V26.368C123.343 26.96 123.183 27.416 122.863 27.736C122.559 28.056 122.111 28.216 121.519 28.216C120.943 28.216 120.495 28.056 120.175 27.736C119.871 27.416 119.719 26.96 119.719 26.368V21.088C119.719 20.272 119.567 19.688 119.263 19.336C118.975 18.968 118.527 18.784 117.919 18.784C117.151 18.784 116.535 19.024 116.071 19.504C115.623 19.984 115.399 20.624 115.399 21.424V26.368C115.399 27.6 114.799 28.216 113.599 28.216ZM131.712 28.264C130.448 28.264 129.344 28.016 128.4 27.52C127.472 27.024 126.752 26.312 126.24 25.384C125.728 24.456 125.472 23.36 125.472 22.096C125.472 21.152 125.616 20.304 125.904 19.552C126.192 18.8 126.608 18.16 127.152 17.632C127.712 17.088 128.376 16.68 129.144 16.408C129.912 16.12 130.768 15.976 131.712 15.976C132.976 15.976 134.072 16.224 135 16.72C135.944 17.216 136.672 17.92 137.184 18.832C137.712 19.744 137.976 20.832 137.976 22.096C137.976 23.056 137.824 23.912 137.52 24.664C137.232 25.416 136.816 26.064 136.272 26.608C135.728 27.152 135.064 27.568 134.28 27.856C133.512 28.128 132.656 28.264 131.712 28.264ZM131.712 25.552C132.24 25.552 132.696 25.424 133.08 25.168C133.464 24.912 133.768 24.536 133.992 24.04C134.216 23.528 134.328 22.88 134.328 22.096C134.328 20.928 134.088 20.072 133.608 19.528C133.128 18.968 132.496 18.688 131.712 18.688C131.2 18.688 130.744 18.808 130.344 19.048C129.96 19.288 129.656 19.664 129.432 20.176C129.224 20.672 129.12 21.312 129.12 22.096C129.12 23.264 129.36 24.136 129.84 24.712C130.32 25.272 130.944 25.552 131.712 25.552ZM145.848 28.264C144.744 28.264 143.816 28.08 143.064 27.712C142.328 27.344 141.776 26.808 141.408 26.104C141.056 25.4 140.88 24.512 140.88 23.44V18.928H139.872C139.424 18.928 139.072 18.808 138.816 18.568C138.576 18.328 138.456 18 138.456 17.584C138.456 17.136 138.576 16.8 138.816 16.576C139.072 16.336 139.424 16.216 139.872 16.216H140.88V14.392C140.88 13.784 141.04 13.328 141.36 13.024C141.68 12.704 142.128 12.544 142.704 12.544C143.296 12.544 143.744 12.704 144.048 13.024C144.352 13.328 144.504 13.784 144.504 14.392V16.216H146.784C147.232 16.216 147.576 16.336 147.816 16.576C148.056 16.8 148.176 17.136 148.176 17.584C148.176 18 148.056 18.328 147.816 18.568C147.576 18.808 147.232 18.928 146.784 18.928H144.504V23.296C144.504 23.968 144.656 24.472 144.96 24.808C145.28 25.144 145.784 25.312 146.472 25.312C146.712 25.312 146.936 25.288 147.144 25.24C147.352 25.192 147.544 25.16 147.72 25.144C147.944 25.128 148.128 25.2 148.272 25.36C148.416 25.504 148.488 25.832 148.488 26.344C148.488 26.728 148.424 27.064 148.296 27.352C148.168 27.64 147.944 27.848 147.624 27.976C147.416 28.056 147.128 28.12 146.76 28.168C146.408 28.232 146.104 28.264 145.848 28.264ZM155.77 28.264C154.378 28.264 153.178 28.016 152.17 27.52C151.178 27.008 150.41 26.296 149.866 25.384C149.338 24.456 149.074 23.368 149.074 22.12C149.074 20.904 149.33 19.84 149.842 18.928C150.354 18 151.066 17.28 151.978 16.768C152.906 16.24 153.954 15.976 155.122 15.976C155.97 15.976 156.738 16.12 157.426 16.408C158.114 16.68 158.706 17.08 159.202 17.608C159.698 18.12 160.074 18.752 160.33 19.504C160.586 20.24 160.714 21.064 160.714 21.976C160.714 22.28 160.618 22.512 160.426 22.672C160.234 22.816 159.954 22.888 159.586 22.888H152.05V21.016H158.098L157.714 21.352C157.714 20.696 157.618 20.152 157.426 19.72C157.234 19.272 156.954 18.936 156.586 18.712C156.234 18.488 155.794 18.376 155.266 18.376C154.674 18.376 154.17 18.512 153.754 18.784C153.338 19.056 153.018 19.448 152.794 19.96C152.57 20.472 152.458 21.088 152.458 21.808V22C152.458 23.216 152.738 24.112 153.298 24.688C153.874 25.264 154.722 25.552 155.842 25.552C156.226 25.552 156.666 25.504 157.162 25.408C157.658 25.312 158.122 25.16 158.554 24.952C158.922 24.776 159.25 24.72 159.538 24.784C159.826 24.832 160.05 24.96 160.21 25.168C160.37 25.376 160.458 25.616 160.474 25.888C160.506 26.16 160.45 26.432 160.306 26.704C160.162 26.96 159.922 27.176 159.586 27.352C159.042 27.656 158.426 27.88 157.738 28.024C157.066 28.184 156.41 28.264 155.77 28.264ZM167.334 28.264C166.63 28.264 165.902 28.2 165.15 28.072C164.414 27.944 163.742 27.728 163.134 27.424C162.814 27.264 162.582 27.064 162.438 26.824C162.31 26.568 162.254 26.312 162.27 26.056C162.286 25.8 162.366 25.568 162.51 25.36C162.67 25.152 162.87 25.016 163.11 24.952C163.366 24.872 163.646 24.896 163.95 25.024C164.606 25.296 165.206 25.488 165.75 25.6C166.294 25.712 166.83 25.768 167.358 25.768C168.046 25.768 168.542 25.664 168.846 25.456C169.166 25.232 169.326 24.944 169.326 24.592C169.326 24.272 169.222 24.032 169.014 23.872C168.806 23.712 168.502 23.6 168.102 23.536L165.582 23.08C164.59 22.904 163.822 22.544 163.278 22C162.75 21.44 162.486 20.728 162.486 19.864C162.486 19.064 162.71 18.376 163.158 17.8C163.606 17.208 164.222 16.76 165.006 16.456C165.806 16.136 166.71 15.976 167.718 15.976C168.438 15.976 169.102 16.04 169.71 16.168C170.318 16.296 170.902 16.504 171.462 16.792C171.75 16.936 171.95 17.128 172.062 17.368C172.19 17.608 172.23 17.856 172.182 18.112C172.15 18.368 172.054 18.6 171.894 18.808C171.734 19.016 171.526 19.152 171.27 19.216C171.03 19.28 170.75 19.248 170.43 19.12C169.918 18.88 169.446 18.712 169.014 18.616C168.582 18.504 168.166 18.448 167.766 18.448C167.046 18.448 166.526 18.568 166.206 18.808C165.886 19.032 165.726 19.32 165.726 19.672C165.726 19.944 165.814 20.176 165.99 20.368C166.182 20.544 166.47 20.664 166.854 20.728L169.374 21.184C170.414 21.36 171.206 21.712 171.75 22.24C172.294 22.752 172.566 23.456 172.566 24.352C172.566 25.568 172.086 26.528 171.126 27.232C170.182 27.92 168.918 28.264 167.334 28.264Z" fill="#191C2D"/>
</svg>
