<svg width="15" height="15" viewBox="0 0 15 15" fill="none" xmlns="http://www.w3.org/2000/svg">
<path d="M10.1831 1.43313C10.3003 1.31596 10.4593 1.25014 10.625 1.25014C10.7907 1.25014 10.9497 1.31596 11.0669 1.43313L13.5669 3.93313C13.684 4.05033 13.7499 4.20928 13.7499 4.375C13.7499 4.54073 13.684 4.69967 13.5669 4.81688L5.44187 12.9419C5.32469 13.0591 5.16575 13.125 5 13.125H2.5C2.33424 13.125 2.17527 13.0592 2.05806 12.9419C1.94085 12.8247 1.875 12.6658 1.875 12.5V10C1.87504 9.83426 1.94091 9.67531 2.05812 9.55813L8.30813 3.30813L10.1831 1.43313ZM8.75 4.63375L3.125 10.2588V11.875H4.74125L10.3663 6.25L8.75 4.63375ZM11.25 5.36625L12.2413 4.375L10.625 2.75875L9.63375 3.75L11.25 5.36625Z" fill="black"/>
</svg>
